<svg width="20" height="21" viewBox="0 0 20 21" fill="none" xmlns="http://www.w3.org/2000/svg">
<path d="M8.84243 18.5189H0C0.00518531 14.2596 2.76895 10.6499 6.59349 9.3817C5.29049 8.44316 4.44455 6.91201 4.44455 5.1853C4.44455 2.32376 6.7683 0 9.62985 0C12.4914 0 14.8152 2.32376 14.8152 5.1853C14.8152 6.77719 14.0966 8.20167 12.964 9.14984C10.1839 9.95282 8.14834 12.5188 8.14834 15.5559C8.14834 16.6196 8.39797 17.6263 8.84243 18.5189Z" fill="#BFBFBF"/>
<path d="M14.9046 17.0377L13.7979 18.1444C13.226 18.723 13.2282 19.6563 13.8046 20.2326C14.3823 20.8104 15.3216 20.8104 15.8994 20.2326L19.5662 16.5659C20.144 15.9881 20.144 15.0488 19.5662 14.471L15.8994 10.8043C15.3216 10.2257 14.3823 10.2257 13.8046 10.8043C13.226 11.3821 13.226 12.3213 13.8046 12.8991L14.9794 14.0747H11.1104C10.2971 14.0799 9.62891 14.7414 9.62891 15.5562C9.62891 16.3725 10.2919 17.0363 11.1104 17.0377H14.9046Z" fill="url(#paint0_linear_12980_10478)"/>
<defs>
<linearGradient id="paint0_linear_12980_10478" x1="9.62891" y1="15.5182" x2="19.9995" y2="15.5182" gradientUnits="userSpaceOnUse">
<stop stop-color="#F3B133"/>
<stop offset="1" stop-color="#F38C31"/>
</linearGradient>
</defs>
</svg>
