<svg width="104" height="22" viewBox="0 0 104 22" fill="none" xmlns="http://www.w3.org/2000/svg">
<path d="M35.8029 13.6628L40.4373 8.76256C41.1292 8.03093 41.1292 6.85692 40.4373 6.12529C39.7453 5.39366 38.635 5.39366 37.9431 6.12529L28.964 15.6195V7.35035C28.964 6.31245 28.1755 5.47873 27.1939 5.47873C26.2123 5.47873 25.4238 6.31245 25.4238 7.35035V20.0603C25.4238 20.5878 25.633 21.0642 25.9549 21.3875L25.9709 21.4045C26.3089 21.7618 26.7755 21.949 27.2261 21.949C27.6767 21.949 28.1272 21.7618 28.4812 21.4045L33.3087 16.3001L38.1845 21.4555C38.5224 21.8128 38.989 22 39.4396 22C39.8902 22 40.3407 21.8128 40.6948 21.4555C41.3867 20.7239 41.3867 19.5499 40.6948 18.8182L35.8029 13.6628Z" fill="#F3B133"/>
<path d="M19.7447 7.99692C18.7631 7.99692 17.9746 8.83064 17.9746 9.86853V19.9583C17.9746 20.9962 18.7631 21.8299 19.7447 21.8299C20.7263 21.8299 21.5148 20.9962 21.5148 19.9583V9.86853C21.5148 8.84765 20.7263 7.99692 19.7447 7.99692Z" fill="#F3B133"/>
<path d="M7.74006 0C6.16308 0 4.68266 0.510441 3.45969 1.37819C3.26659 0.5785 2.57466 0 1.77008 0C0.788488 0 0 0.83372 0 1.87162V20.0093C0 21.0472 0.788488 21.8809 1.77008 21.8809C2.75166 21.8809 3.54015 21.0472 3.54015 20.0093V14.9389C4.74702 15.7726 6.19527 16.266 7.75615 16.266C11.9882 16.266 15.4479 12.6249 15.4479 8.13302C15.4479 3.64114 11.9882 0 7.74006 0ZM7.74006 12.5398C5.43896 12.5398 3.58843 10.5661 3.58843 8.15004C3.58843 5.73395 5.45505 3.74323 7.74006 3.74323C10.0412 3.74323 11.9078 5.71694 11.9078 8.13302C11.9078 10.5491 10.0412 12.5398 7.74006 12.5398Z" fill="#F3B133"/>
<path d="M51.2191 5.63186C49.6904 5.63186 48.2583 6.10828 47.0675 6.92498V1.87162C47.0675 0.83372 46.279 0 45.2974 0C44.3158 0 43.5273 0.83372 43.5273 1.87162V13.7309C43.5273 13.7479 43.5273 13.7479 43.5273 13.7649C43.5273 13.7819 43.5273 13.7819 43.5273 13.7989V20.0263C43.5273 21.0642 44.3158 21.8979 45.2974 21.8979C46.102 21.8979 46.7778 21.3364 46.987 20.5708C48.21 21.4215 49.6582 21.9149 51.2191 21.9149C55.4673 21.9149 58.9109 18.2568 58.9109 13.7819C58.9109 9.30704 55.4673 5.63186 51.2191 5.63186ZM51.2191 18.1547C48.9341 18.1547 47.0836 16.198 47.0675 13.7819V13.7138C47.0836 11.2978 48.9502 9.34107 51.2191 9.34107C53.5202 9.34107 55.3869 11.3148 55.3869 13.7309C55.3869 16.1469 53.5202 18.1547 51.2191 18.1547Z" fill="#F3B133"/>
<path d="M67.9066 5.63187C63.6584 5.63187 60.2148 9.29003 60.2148 13.7649C60.2148 18.2398 63.6745 21.8979 67.9066 21.8979C70.0951 21.8979 72.2031 20.9111 73.6513 19.1756C74.295 18.4099 74.2306 17.2189 73.5065 16.5383C72.7824 15.8577 71.656 15.9258 71.0123 16.6914C70.2238 17.6272 69.0974 18.1717 67.9066 18.1717C65.6055 18.1717 63.755 16.198 63.755 13.7819C63.755 11.3658 65.6216 9.35809 67.9066 9.35809C68.7756 9.35809 69.6123 9.64734 70.3043 10.1578L66.4745 12.3357C65.6216 12.8291 65.2837 13.9521 65.7504 14.8708C66.0722 15.5004 66.6837 15.8577 67.3112 15.8577C67.5848 15.8577 67.8744 15.7896 68.148 15.6365L73.8605 12.4037C73.8766 12.3867 73.8927 12.3867 73.9088 12.3697C73.9249 12.3697 73.941 12.3527 73.9571 12.3527C74.8099 11.8422 75.1157 10.7193 74.6329 9.81748C73.2812 7.23125 70.7066 5.63187 67.9066 5.63187Z" fill="#F3B133"/>
<path d="M85.6071 11.8252L81.0693 11.7742C80.4095 11.7742 79.8624 11.1787 79.8624 10.464C79.8624 9.74942 80.4095 9.15391 81.0693 9.15391H87.3772C88.3588 9.15391 89.1473 8.32019 89.1473 7.28229C89.1473 6.2444 88.3588 5.41068 87.3772 5.41068H81.0693C78.4464 5.41068 76.3223 7.67363 76.3223 10.464C76.3223 13.2544 78.4464 15.5174 81.0532 15.5174L85.591 15.5684C86.2508 15.5684 86.7979 16.164 86.7979 16.8786C86.7979 17.5932 86.2508 18.1887 85.591 18.1887H78.5751C77.5935 18.1887 76.805 19.0224 76.805 20.0603C76.805 21.0982 77.5935 21.9319 78.5751 21.9319H85.591C88.214 21.9319 90.3381 19.669 90.3381 16.8786C90.3381 14.0882 88.1979 11.8252 85.6071 11.8252Z" fill="#F3B133"/>
<path d="M19.7759 6.80589C20.7535 6.80589 21.546 5.96793 21.546 4.93427C21.546 3.9006 20.7535 3.06265 19.7759 3.06265C18.7983 3.06265 18.0059 3.9006 18.0059 4.93427C18.0059 5.96793 18.7983 6.80589 19.7759 6.80589Z" fill="#F3B133"/>
<path d="M102.23 8.2011H99.4141V5.01935C99.4141 3.98146 98.6256 3.14774 97.644 3.14774C96.6624 3.14774 95.8739 3.98146 95.8739 5.01935V8.2011H93.2349C92.2533 8.2011 91.4648 9.03482 91.4648 10.0727C91.4648 11.1106 92.2533 11.9443 93.2349 11.9443H95.8739V20.0603C95.8739 21.0982 96.6624 21.932 97.644 21.932C98.6256 21.932 99.4141 21.0982 99.4141 20.0603V11.9443H102.23C103.212 11.9443 104 11.1106 104 10.0727C104 9.03482 103.212 8.2011 102.23 8.2011Z" fill="#F3B133"/>
</svg>
